<svg width="551" height="238" viewBox="0 0 551 238" fill="none" xmlns="http://www.w3.org/2000/svg">
<path d="M483.863 19.8312C483.863 8.87115 492.747 0 503.698 0C514.636 0 523.494 8.87115 523.494 19.8312C523.494 30.7778 514.636 39.6578 503.698 39.6578C492.747 39.6578 483.863 30.7778 483.863 19.8312Z" fill="white"/>
<path d="M526.84 47.3021C540.294 48.52 550.836 59.8355 550.836 73.6311V128.587C550.836 132.813 547.392 136.267 543.16 136.267C538.898 136.267 535.472 132.813 535.472 128.587V81.3866C535.472 79.6178 534.956 77.2221 531.721 77.2221C529.481 77.2221 529.018 79.5911 528.934 81.1021V222.569C528.934 228.649 524.009 233.613 517.903 233.613C511.787 233.613 506.832 228.649 506.832 222.569V141.049C506.801 140.147 506.503 137.809 503.698 137.809H503.684C500.876 137.809 500.529 140.147 500.502 141.049V222.569C500.502 228.649 495.578 233.613 489.467 233.613C483.347 233.613 478.422 228.649 478.422 222.569V81.1021C478.346 79.5911 477.867 77.2221 475.644 77.2221C472.387 77.2221 471.898 79.6178 471.898 81.3866V128.587C471.898 132.813 468.453 136.267 464.209 136.267C459.956 136.267 456.533 132.813 456.533 128.587V73.6311C456.533 59.8355 467.084 48.52 480.555 47.3021C480.995 47.2488 481.476 47.1821 482.004 47.1821H525.333C525.902 47.1821 526.369 47.2483 526.84 47.3021Z" fill="white"/>
<path d="M365.973 30.2448C365.973 19.8759 357.587 11.4492 347.218 11.4492C336.84 11.4492 328.436 19.8759 328.436 30.2448C328.436 40.6181 336.84 49.0182 347.218 49.0182C357.587 49.0182 365.973 40.6181 365.973 30.2448Z" fill="white"/>
<path d="M309.391 72.7688L293.783 123.569C293.783 123.569 291 132.884 298.903 135.209C306.765 137.534 309.151 128.444 309.151 128.444L321.734 86.0445C321.734 86.0445 322.414 82.7822 324.867 83.4888C327.325 84.1911 326.405 87.68 326.405 87.68L304.498 167.138H324.867V224.049C324.867 229.431 329.249 233.818 334.658 233.818C340.058 233.818 344.423 229.431 344.423 224.049V167.138H349.978V224.049C349.978 229.431 354.343 233.818 359.756 233.818C365.174 233.818 369.552 229.431 369.552 224.049V167.138H389.912L368.027 87.68C368.027 87.68 367.103 84.1911 369.552 83.4888C372.005 82.7822 372.689 86.0445 372.689 86.0445L385.272 128.444C385.272 128.444 387.663 137.534 395.507 135.209C403.432 132.884 400.636 123.569 400.636 123.569L385.027 72.7688C385.027 72.7688 379.454 58.0845 367.103 58.0845H327.325C314.974 58.0845 309.391 72.7688 309.391 72.7688Z" fill="white"/>
<path d="M253.538 30.2448C253.538 19.8759 245.138 11.4492 234.769 11.4492C224.396 11.4492 216 19.8759 216 30.2448C216 40.6181 224.396 49.0182 234.769 49.0182C245.138 49.0182 253.538 40.6181 253.538 30.2448Z" fill="white"/>
<path d="M196.943 72.7688L181.347 123.569C181.347 123.569 178.556 132.884 186.458 135.209C194.32 137.534 196.703 128.444 196.703 128.444L209.289 86.0445C209.289 86.0445 209.969 82.7822 212.423 83.4888C214.885 84.1911 213.951 87.68 213.951 87.68L192.058 167.138H212.423V224.049C212.423 229.431 216.818 233.818 222.214 233.818C227.618 233.818 231.987 229.431 231.987 224.049V167.138H237.543V224.049C237.543 229.431 241.894 233.818 247.325 233.818C252.738 233.818 257.107 229.431 257.107 224.049V167.138H277.476L255.591 87.68C255.591 87.68 254.663 84.1911 257.107 83.4888C259.556 82.7822 260.249 86.0445 260.249 86.0445L272.818 128.444C272.818 128.444 275.214 137.534 283.067 135.209C290.978 132.884 288.187 123.569 288.187 123.569L272.578 72.7688C272.578 72.7688 267.018 58.0845 254.663 58.0845H214.885C202.543 58.0845 196.943 72.7688 196.943 72.7688Z" fill="white"/>
<path d="M429.023 135.311C437.667 135.311 444.641 128.316 444.641 119.671C444.641 111.031 437.667 104.058 429.023 104.058C420.378 104.058 413.396 111.031 413.396 119.671C413.396 128.316 420.378 135.311 429.023 135.311Z" fill="white"/>
<path d="M391.556 183.854C390.791 185.68 390.165 189.556 393.836 191.249C398.134 193.223 400.529 189.067 400.529 189.067L409.022 161.978C409.022 161.978 410.502 160.165 410.502 162.04V225.809H410.538C410.538 230.249 414.111 233.827 418.555 233.827C422.987 233.827 426.569 230.249 426.569 225.809V200.644C426.569 200.644 426.102 197.085 428.973 197.085C431.84 197.085 431.4 200.644 431.4 200.644V225.809C431.4 230.249 434.995 233.827 439.427 233.827C443.849 233.827 447.462 230.249 447.462 225.809V162.04C447.462 160.164 448.458 161.502 448.458 161.502L455.115 180.049C455.115 180.049 458 188.342 458.893 188.707C461.898 189.969 465.364 188.533 466.635 185.502C467.467 183.525 467.151 181.404 466.004 179.8L466.062 179.742C465.871 179.142 456.106 155.209 454.955 151.849C451.435 141.56 445.022 141.649 438.844 141.48C432.666 141.334 428.973 141.48 428.973 141.48C428.973 141.48 425.026 141.32 416.871 141.56C408.729 141.818 406.16 145.991 397.173 169.102C395.893 172.431 391.555 183.196 391.498 183.84L391.556 183.854Z" fill="white"/>
<path d="M85.8802 19.8312C85.8802 8.87115 76.9869 0 66.0402 0C55.1024 0 46.2402 8.87115 46.2402 19.8312C46.2402 30.7778 55.1024 39.6578 66.0402 39.6578C76.9869 39.6578 85.8802 30.7778 85.8802 19.8312Z" fill="white"/>
<path d="M42.8931 47.3021C29.4442 48.52 18.8887 59.8355 18.8887 73.6311V128.587C18.8887 132.813 22.3375 136.267 26.5865 136.267C30.8353 136.267 34.2709 132.813 34.2709 128.587V81.3866C34.2709 79.6178 34.782 77.2221 38.022 77.2221C40.2532 77.2221 40.7198 79.5911 40.8175 81.1021V222.569C40.8175 228.649 45.7287 233.613 51.8442 233.613C57.951 233.613 62.8887 228.649 62.8887 222.569V141.049C62.9335 140.147 63.231 137.809 66.0398 137.809H66.0505C68.8638 137.809 69.2105 140.147 69.2327 141.049V222.569C69.2327 228.649 74.1616 233.613 80.2683 233.613C86.3883 233.613 91.3083 228.649 91.3083 222.569V81.1021C91.3744 79.5911 91.8771 77.2221 94.095 77.2221C97.3528 77.2221 97.8371 79.6178 97.8371 81.3866V128.587C97.8371 132.813 101.282 136.267 105.526 136.267C109.77 136.267 113.206 132.813 113.206 128.587V73.6311C113.206 59.8355 102.659 48.52 89.1883 47.3021C88.7393 47.2488 88.2683 47.1821 87.7305 47.1821H44.406C43.8372 47.1821 43.3615 47.2483 42.8949 47.3021H42.8931Z" fill="white"/>
<path d="M25.6044 136.574L8 229.889" stroke="white" stroke-width="15.3333" stroke-miterlimit="2" stroke-linecap="round"/>
<path d="M122.618 127.125C121.595 125.525 119.826 124.454 117.795 124.454C114.658 124.454 112.102 127.009 112.102 130.134C112.102 131.045 112.658 132.631 112.658 132.631L128.413 161.138C128.413 161.138 129.378 163.103 129.378 164.898V226.116H129.404C129.404 230.387 132.853 233.818 137.111 233.818C141.364 233.818 144.787 230.387 144.787 226.116V201.96C144.787 201.96 144.355 198.538 147.115 198.538C149.867 198.538 149.435 201.96 149.435 201.96V226.116C149.435 230.387 152.893 233.818 157.147 233.818C161.395 233.818 164.858 230.387 164.858 226.116V164.898C164.858 163.103 165.813 161.138 165.813 161.138L180.373 134.823C180.373 134.823 182.155 131.045 182.155 130.134C182.155 127.009 179.604 124.454 176.458 124.454C174.395 124.454 172.635 125.525 171.635 127.125L171.574 127.094C171.116 127.485 163.827 140.472 161.418 142.881C158.871 145.445 156.596 145.161 156.596 145.161H137.658C137.658 145.161 135.365 145.445 132.831 142.881C130.391 140.472 123.129 127.485 122.667 127.094L122.618 127.125Z" fill="white"/>
<path d="M147.115 135.311C155.755 135.311 162.733 128.316 162.733 119.671C162.733 111.031 155.755 104.058 147.115 104.058C138.475 104.058 131.498 111.031 131.498 119.671C131.498 128.316 138.475 135.311 147.115 135.311Z" fill="white"/>
<path d="M147.143 157.245L164.8 170.125L173.196 201.027H121.067L129.48 170.125L147.143 157.245Z" fill="white"/>
</svg>
