<svg width="376" height="376" viewBox="0 0 376 376" fill="none" xmlns="http://www.w3.org/2000/svg">
<path d="M253.8 208.485H121.534C120.738 208.485 120.098 209.205 120.098 210.089V249.836C120.098 250.738 120.738 251.454 121.534 251.454H253.8C254.609 251.454 255.254 250.738 255.254 249.836V210.089C255.254 209.205 254.609 208.485 253.8 208.485Z" fill="white"/>
<path d="M253.8 123.898H121.534C120.738 123.898 120.098 124.622 120.098 125.507V165.258C120.098 166.16 120.738 166.871 121.534 166.871H253.8C254.609 166.871 255.254 166.16 255.254 165.258V125.507C255.254 124.622 254.609 123.898 253.8 123.898Z" fill="white"/>
<path d="M251.938 63.8089L188.454 0.32C188.022 -0.106667 187.329 -0.106667 186.898 0.32L123.409 63.8089C122.72 64.5022 123.209 65.6845 124.187 65.6845H251.165C252.143 65.6845 252.631 64.5022 251.938 63.8089Z" fill="white"/>
<path d="M311.538 251.938L375.027 188.449C375.458 188.022 375.458 187.329 375.027 186.902L311.538 123.414C310.849 122.72 309.667 123.209 309.667 124.187V251.165C309.667 252.142 310.849 252.631 311.538 251.938Z" fill="white"/>
<path d="M123.409 311.542L186.898 375.031C187.329 375.458 188.022 375.458 188.454 375.031L251.938 311.542C252.631 310.849 252.143 309.671 251.165 309.671H124.187C123.209 309.671 122.72 310.849 123.409 311.542Z" fill="white"/>
<path d="M63.809 123.414L0.32 186.902C-0.106667 187.329 -0.106667 188.022 0.32 188.449L63.809 251.938C64.4979 252.631 65.6846 252.142 65.6846 251.165V124.187C65.6846 123.209 64.4979 122.72 63.809 123.414Z" fill="white"/>
</svg>
