<svg width="486" height="363" viewBox="0 0 486 363" fill="none" xmlns="http://www.w3.org/2000/svg">
<path d="M3.17321 262.329H110.729C112.182 262.329 113.369 261.138 113.369 259.68C113.369 259.005 113.093 258.396 112.675 257.929L112.524 257.769L59.0132 188.534L58.4932 187.96C58.0087 187.431 57.3199 187.103 56.5465 187.103C55.8799 187.103 55.2887 187.378 54.8132 187.778L54.4932 188.151L53.9954 188.716L1.78206 257.223L0.98654 258.205C0.693206 258.623 0.533203 259.134 0.533203 259.68C0.533203 261.138 1.7154 262.329 3.17321 262.329Z" fill="white"/>
<path d="M110.404 272.089H2.63553C1.1822 272.089 0 273.272 0 274.729V359.067C0 360.525 1.1822 361.716 2.63553 361.716H37.3289V308.654C37.3289 307.187 38.4978 306.014 39.96 306.014H72.16C73.6223 306.014 74.7956 307.187 74.7956 308.654V361.716H110.404C111.858 361.716 113.044 360.525 113.044 359.067V274.729C113.044 273.272 111.858 272.089 110.404 272.089Z" fill="white"/>
<path d="M473.213 284.534C473.213 285.943 472.049 287.08 470.6 287.08H438.742C437.293 287.08 436.129 285.943 436.129 284.534V265.156C436.129 263.76 437.293 262.623 438.742 262.623H470.6C472.049 262.623 473.213 263.76 473.213 265.156V284.534ZM473.213 320.325C473.213 321.738 472.049 322.876 470.6 322.876H438.742C437.293 322.876 436.129 321.738 436.129 320.325V300.965C436.129 299.547 437.293 298.423 438.742 298.423H470.6C472.049 298.423 473.213 299.547 473.213 300.965V320.325ZM424.511 284.534C424.511 285.943 423.347 287.08 421.907 287.08H390.04C388.591 287.08 387.418 285.943 387.418 284.534V265.156C387.418 263.76 388.591 262.623 390.04 262.623H421.907C423.347 262.623 424.511 263.76 424.511 265.156V284.534ZM424.511 320.325C424.511 321.738 423.347 322.876 421.907 322.876H390.04C388.591 322.876 387.418 321.738 387.418 320.325V300.965C387.418 299.547 388.591 298.423 390.04 298.423H421.907C423.347 298.423 424.511 299.547 424.511 300.965V320.325ZM482.876 250.014H376.209C374.764 250.014 373.604 251.134 373.604 252.547V360.254C373.604 361.649 374.764 362.787 376.209 362.787H482.876C484.325 362.787 485.48 361.649 485.48 360.254V252.547C485.48 251.134 484.325 250.014 482.876 250.014Z" fill="white"/>
<path d="M219.698 76.5468C219.698 77.2935 219.085 77.9111 218.316 77.9111H194.427C193.662 77.9111 193.058 77.2935 193.058 76.5468V49.9023C193.058 49.1378 193.662 48.5333 194.427 48.5333H218.316C219.085 48.5333 219.698 49.1378 219.698 49.9023V76.5468ZM219.698 137.702C219.698 138.458 219.085 139.076 218.316 139.076H194.427C193.662 139.076 193.058 138.458 193.058 137.702V111.062C193.058 110.307 193.662 109.707 194.427 109.707H218.316C219.085 109.707 219.698 110.307 219.698 111.062V137.702ZM219.698 198.88C219.698 199.636 219.085 200.249 218.316 200.249H194.427C193.662 200.249 193.058 199.636 193.058 198.88V172.236C193.058 171.48 193.662 170.867 194.427 170.867H218.316C219.085 170.867 219.698 171.48 219.698 172.236V198.88ZM219.698 260.036C219.698 260.809 219.085 261.405 218.316 261.405H194.427C193.662 261.405 193.058 260.809 193.058 260.036V233.409C193.058 232.64 193.662 232.04 194.427 232.04H218.316C219.085 232.04 219.698 232.64 219.698 233.409V260.036ZM219.698 321.209C219.698 321.965 219.085 322.583 218.316 322.583H194.427C193.662 322.583 193.058 321.965 193.058 321.209V294.578C193.058 293.822 193.662 293.213 194.427 293.213H218.316C219.085 293.213 219.698 293.822 219.698 294.578V321.209ZM172.827 76.5468C172.827 77.2935 172.209 77.9111 171.454 77.9111H147.551C146.796 77.9111 146.182 77.2935 146.182 76.5468V49.9023C146.182 49.1378 146.796 48.5333 147.551 48.5333H171.454C172.209 48.5333 172.827 49.1378 172.827 49.9023V76.5468ZM172.827 137.702C172.827 138.458 172.209 139.076 171.454 139.076H147.551C146.796 139.076 146.182 138.458 146.182 137.702V111.062C146.182 110.307 146.796 109.707 147.551 109.707H171.454C172.209 109.707 172.827 110.307 172.827 111.062V137.702ZM172.827 198.88C172.827 199.636 172.209 200.249 171.454 200.249H147.551C146.796 200.249 146.182 199.636 146.182 198.88V172.236C146.182 171.48 146.796 170.867 147.551 170.867H171.454C172.209 170.867 172.827 171.48 172.827 172.236V198.88ZM172.827 260.036C172.827 260.809 172.209 261.405 171.454 261.405H147.551C146.796 261.405 146.182 260.809 146.182 260.036V233.409C146.182 232.64 146.796 232.04 147.551 232.04H171.454C172.209 232.04 172.827 232.64 172.827 233.409V260.036ZM172.827 321.209C172.827 321.965 172.209 322.583 171.454 322.583H147.551C146.796 322.583 146.182 321.965 146.182 321.209V294.578C146.182 293.822 146.796 293.213 147.551 293.213H171.454C172.209 293.213 172.827 293.822 172.827 294.578V321.209ZM234.92 0H130.534C129.138 0 127.982 1.13784 127.982 2.56003V359.302C127.982 360.707 129.138 361.849 130.534 361.849H234.92C236.316 361.849 237.489 360.707 237.489 359.302V2.56003C237.489 1.13784 236.316 0 234.92 0Z" fill="white"/>
<path d="M485.365 239.174C485.365 240.369 484.409 241.325 483.223 241.325H375.858C374.68 241.325 373.716 240.369 373.716 239.174V217.703C373.716 216.525 374.68 215.561 375.858 215.561H483.223C484.409 215.561 485.365 216.525 485.365 217.703V239.174Z" fill="white"/>
<path d="M349.138 176.365C349.138 177.783 347.982 178.92 346.587 178.92H315.48C314.058 178.92 312.911 177.783 312.911 176.365V156.894C312.911 155.467 314.058 154.329 315.48 154.329H346.587C347.982 154.329 349.138 155.467 349.138 156.894V176.365ZM349.138 212.356C349.138 213.765 347.982 214.898 346.587 214.898H315.48C314.058 214.898 312.911 213.765 312.911 212.356V192.88C312.911 191.467 314.058 190.334 315.48 190.334H346.587C347.982 190.334 349.138 191.467 349.138 192.88V212.356ZM349.138 248.347C349.138 249.743 347.982 250.889 346.587 250.889H315.48C314.058 250.889 312.911 249.743 312.911 248.347V228.863C312.911 227.449 314.058 226.311 315.48 226.311H346.587C347.982 226.311 349.138 227.449 349.138 228.863V248.347ZM349.138 284.325C349.138 285.743 347.982 286.88 346.587 286.88H315.48C314.058 286.88 312.911 285.743 312.911 284.325V264.854C312.911 263.427 314.058 262.303 315.48 262.303H346.587C347.982 262.303 349.138 263.427 349.138 264.854V284.325ZM349.138 320.307C349.138 321.725 347.982 322.858 346.587 322.858H315.48C314.058 322.858 312.911 321.725 312.911 320.307V300.832C312.911 299.427 314.058 298.289 315.48 298.289H346.587C347.982 298.289 349.138 299.427 349.138 300.832V320.307ZM301.667 168.338V212.391C301.667 213.805 300.511 214.943 299.115 214.943H268.013C266.587 214.943 265.444 213.805 265.444 212.391V206.996C265.457 206.654 265.52 206.334 265.64 206.04C265.689 205.934 265.697 205.894 265.795 205.743C265.853 205.623 265.942 205.511 266.022 205.405C266.098 205.285 266.218 205.129 266.311 204.987C270.289 199.294 288.235 177.191 295.769 167.947L296.524 167.036C297.071 166.378 297.893 165.951 298.818 165.951C300.249 165.951 301.391 166.996 301.667 168.338ZM301.582 248.347C301.582 249.743 300.445 250.889 299.027 250.889H267.916C266.502 250.889 265.364 249.743 265.364 248.347V228.863C265.364 227.449 266.502 226.311 267.916 226.311H299.027C300.445 226.311 301.582 227.449 301.582 228.863V248.347ZM301.582 284.325C301.582 285.743 300.445 286.88 299.027 286.88H267.916C266.502 286.88 265.364 285.743 265.364 284.325V264.854C265.364 263.427 266.502 262.303 267.916 262.303H299.027C300.445 262.303 301.582 263.427 301.582 264.854V284.325ZM301.582 320.307C301.582 321.725 300.445 322.858 299.027 322.858H267.916C266.502 322.858 265.364 321.725 265.364 320.307V300.832C265.364 299.427 266.502 298.289 267.916 298.289H299.027C300.445 298.289 301.582 299.427 301.582 300.832V320.307ZM317.813 138.04L318.547 137.12C325.569 128.116 337.396 113.551 343.165 106.48L343.92 105.578C344.462 104.916 345.289 104.494 346.213 104.494C347.64 104.494 348.782 105.525 349.058 106.88V139.805C349.058 141.391 347.796 142.667 346.222 142.738C346.178 142.738 346.138 142.765 346.093 142.765C346.049 142.765 346.013 142.738 345.965 142.738H320.329C320.284 142.738 320.245 142.765 320.2 142.765C320.155 142.765 320.116 142.738 320.071 142.738C318.498 142.667 317.236 141.391 317.236 139.805C317.236 139.142 317.449 138.538 317.813 138.04ZM361.005 67.3647C360.662 66.218 359.645 65.3691 358.387 65.3691C357.822 65.3691 357.329 65.578 356.893 65.8625C356.827 65.9073 356.765 65.9425 356.698 65.9913L355.818 67.1025L253.222 197.249L252.747 197.88C252.222 198.4 251.884 199.111 251.862 199.911V359.841C251.862 361.245 253.009 362.383 254.418 362.383H358.702C360.116 362.383 361.249 361.245 361.249 359.841V68.4314C361.249 68.0492 361.151 67.6847 361.005 67.3647Z" fill="white"/>
</svg>
