<svg width="451" height="230" viewBox="0 0 451 230" fill="none" xmlns="http://www.w3.org/2000/svg">
<path fill-rule="evenodd" clip-rule="evenodd" d="M410.089 25.451C378.489 0.513222 336.667 -0.00231003 321.378 3.64654L319.556 4.05553C301.867 8.23323 273.778 15.1488 240.889 55.9799C240.667 56.2066 240.489 56.4422 240.311 56.6733L239.911 57.1799C239.6 57.6333 239.378 58.1667 239.378 58.7667C239.378 59.26 239.466 59.7088 239.733 60.1355L240.489 61.3933C244.622 68.3 249.822 77.1888 254.222 85.3844C254.267 85.4687 254.311 85.5355 254.356 85.6333C254.8 86.54 255.733 87.1799 256.845 87.1799C257.6 87.1799 258.311 86.8733 258.8 86.3888C258.978 86.1178 259.2 85.8378 259.378 85.5533C288.578 45.1666 311.556 39.5933 327.111 35.9355L328.934 35.5C337.022 33.5622 367.645 33.6777 389.778 51.1488C407.067 64.7844 415.822 86.4822 415.822 115.624C415.822 164.522 392.045 183.651 372.089 191.082C341.2 202.638 311.511 187.189 311.333 187.073L310 186.424C293.022 179.051 267.645 163.713 243.778 115.744C195.644 19.06 155.378 9.95771 128.711 3.92219L127.289 3.60657C115.156 0.855529 73.0223 -1.09119 39.9111 25.3443C22.6223 39.1488 2 65.9845 2 115.429C2 145.558 8.1778 165.451 24.0889 186.38C27.6 191.149 63.2445 236.949 132.178 223.74C143.2 221.625 158.133 216.358 174.578 204.038L189.733 217.727C190.756 218.625 192.311 218.549 193.244 217.553C193.644 217.087 193.822 216.491 193.822 215.905V215.705L204.756 148.384L204.8 147.638C204.756 146.984 204.489 146.313 203.956 145.847C203.511 145.407 202.934 145.238 202.356 145.238L201.911 145.283L201.2 145.354L136.711 163.407L135.511 163.599C135.067 163.697 134.623 163.941 134.311 164.318C133.378 165.341 133.467 166.905 134.489 167.816L135.245 168.514L149.689 181.563C140.356 187.603 132.223 190.376 126 191.576C76.1336 201.087 51.5559 168.425 50.5781 167.15L50.267 166.67C38.667 151.456 34.7559 138.532 34.7559 115.43C34.7559 86.1985 43.3781 64.4962 60.3559 50.9318C81.9114 33.7229 111.645 33.6206 120.045 35.5318L121.511 35.8606C143.334 40.8029 173.245 47.5673 214.445 130.336C235.867 173.31 262.667 201.407 296.4 216.225C300.712 218.416 321.156 228.127 347.734 228.127C358.889 228.127 371.067 226.43 383.556 221.785C403.067 214.488 448.578 189.554 448.578 115.625C448.578 66.2117 427.645 39.3177 410.089 25.451Z" stroke="white" stroke-width="3.24445" stroke-miterlimit="2"/>
<path d="M410.089 25.451C378.489 0.513222 336.667 -0.00231003 321.378 3.64654L319.556 4.05553C301.867 8.23323 273.778 15.1488 240.889 55.9799C240.667 56.2066 240.489 56.4422 240.311 56.6733L239.911 57.1799C239.6 57.6333 239.378 58.1667 239.378 58.7667C239.378 59.26 239.466 59.7088 239.733 60.1355L240.489 61.3933C244.622 68.3 249.822 77.1888 254.222 85.3844C254.267 85.4687 254.311 85.5355 254.356 85.6333C254.8 86.54 255.733 87.1799 256.845 87.1799C257.6 87.1799 258.311 86.8733 258.8 86.3888C258.978 86.1178 259.2 85.8378 259.378 85.5533C288.578 45.1666 311.556 39.5933 327.111 35.9355L328.934 35.5C337.022 33.5622 367.645 33.6777 389.778 51.1488C407.067 64.7844 415.822 86.4822 415.822 115.624C415.822 164.522 392.045 183.651 372.089 191.082C341.2 202.638 311.511 187.189 311.333 187.073L310 186.424C293.022 179.051 267.645 163.713 243.778 115.744C195.644 19.06 155.378 9.95771 128.711 3.92219L127.289 3.60657C115.156 0.855529 73.0223 -1.09119 39.9111 25.3443C22.6223 39.1488 2 65.9845 2 115.429C2 145.558 8.1778 165.451 24.0889 186.38C27.6 191.149 63.2445 236.949 132.178 223.74C143.2 221.625 158.133 216.358 174.578 204.038L189.733 217.727C190.756 218.625 192.311 218.549 193.244 217.553C193.644 217.087 193.822 216.491 193.822 215.905V215.705L204.756 148.384L204.8 147.638C204.756 146.984 204.489 146.313 203.956 145.847C203.511 145.407 202.934 145.238 202.356 145.238L201.911 145.283L201.2 145.354L136.711 163.407L135.511 163.599C135.067 163.697 134.623 163.941 134.311 164.318C133.378 165.341 133.467 166.905 134.489 167.816L135.245 168.514L149.689 181.563C140.356 187.603 132.223 190.376 126 191.576C76.1336 201.087 51.5559 168.425 50.5781 167.15L50.267 166.67C38.667 151.456 34.7559 138.532 34.7559 115.43C34.7559 86.1985 43.3781 64.4962 60.3559 50.9318C81.9114 33.7229 111.645 33.6206 120.045 35.5318L121.511 35.8606C143.334 40.8029 173.245 47.5673 214.445 130.336C235.867 173.31 262.667 201.407 296.4 216.225C300.712 218.416 321.156 228.127 347.734 228.127C358.889 228.127 371.067 226.43 383.556 221.785C403.067 214.488 448.578 189.554 448.578 115.625C448.578 66.2117 427.645 39.3177 410.089 25.451Z" fill="white"/>
</svg>
