<svg width="530" height="271" viewBox="0 0 530 271" fill="none" xmlns="http://www.w3.org/2000/svg">
<path d="M373.329 158.236C370.365 157.427 357.951 140.271 367.765 128.982C369.391 127.125 364.471 121.667 365.814 121.556C371.183 121.142 374.04 124.471 375.445 129.276C375.556 131.387 375.636 133.525 375.636 135.68C375.636 143.409 374.831 150.951 373.329 158.236ZM343.054 214.031C341.947 213.72 340.809 213.365 339.582 212.751C333.551 209.68 334.276 214.587 331.311 213.502C328.325 212.396 334.658 205.516 325.742 211.338C316.871 217.142 319.267 210.44 315.396 200.605C311.485 190.76 319.849 179.529 326.831 176.987C336.431 173.511 342.396 172.805 346.898 171.693C360.174 168.378 362.982 160.498 365.387 165.293C365.84 166.191 366.285 167.045 366.685 167.849C367.454 169.28 368.347 172.182 368.387 175.049C362.756 189.818 354.058 203.085 343.054 214.031ZM265.111 246.2C254.311 246.2 243.902 244.631 234.049 241.751C232.631 240.6 231.822 238.667 232.707 236.356C236.129 227.436 246.311 223.947 254.351 223.173C272.271 221.422 295.822 234.805 299.569 232.645C303.334 230.489 310.907 220.636 322.022 221.049C329.609 221.342 329.551 222.618 332.098 223.578C313.511 237.756 290.307 246.2 265.111 246.2ZM250.08 174.169C248.565 176.658 244.409 195.245 241.618 193.08C238.813 190.911 242.747 171.525 243.556 170.049C247.92 162.04 257.36 162.44 250.08 174.169ZM295.218 152.227C293.036 154.169 287.449 153.458 284.653 151.276C281.876 149.116 286.418 145.529 288.076 145.396C291.796 145.067 297.382 150.258 295.218 152.227ZM343.991 152.418C342.805 151.973 341.751 150.845 340.845 148.129C339.947 145.418 342.231 143.871 344.458 144.96C346.725 146.111 349.671 149.493 349.671 151.302C349.671 153.111 345.214 152.893 343.991 152.418ZM348.694 155.813C352.409 155.516 357.987 160.662 355.805 162.64C353.631 164.6 348.058 163.876 345.267 161.693C342.485 159.529 347.022 155.951 348.694 155.813ZM230.138 199.885C227.991 208.329 225.48 211.378 223.347 214.04C221.209 216.738 213.298 220.173 208.276 219.805C203.249 219.427 202.551 206.013 202.551 199.12C202.551 196.733 199.178 203.8 197.418 189.44C196.293 180.249 190.391 190.4 189.978 184.267C189.556 178.151 186.609 179.369 183.507 175.547C180.422 171.729 176.578 175.92 172.267 177.853C167.987 179.76 169.747 180.76 163.653 178.845C163.493 178.791 163.413 178.747 163.262 178.693C157.671 165.471 154.582 150.933 154.582 135.68C154.582 131.947 154.782 128.28 155.129 124.649C155.338 124.28 155.556 123.925 155.809 123.622C161.658 116.707 161.529 115.085 161.529 115.085L167.996 112.849C167.996 112.849 178.32 114.436 186.098 117.369C192.502 119.769 202.596 125.205 208.458 122.813C212.702 121.062 216.018 118.747 215.618 115.213C215.142 110.782 211.653 109.729 207.431 112.716C205.871 113.813 202.551 106.036 199.947 106.431C197.342 106.818 203.169 115.569 200.96 115.942C198.747 116.32 194.293 106.818 193.533 105.28C192.787 103.751 189.347 99.9378 186.262 102.849C179.742 109.04 169.156 108.662 167.031 110.258C160.564 115.098 158.853 108.662 158.996 104.742C159.258 103.849 159.52 102.942 159.809 102.058C161.92 99.7289 169.502 98.9556 172.107 100.693C174.969 102.6 177.018 100.2 178.138 99.04C179.271 97.9112 178.871 96.0712 178.16 94.5512C177.431 93.0134 179.587 91.8889 181.063 91.4934C182.556 91.0978 187.476 87.6534 189.445 86.5023C191.431 85.3601 201.645 84.12 206.227 86.4089C210.8 88.7156 215.005 86.8312 217.258 84.1823C220.08 80.8312 223.676 78.2756 225.267 77.5023C226.876 76.7512 221.329 71.5778 216.769 77.2223C212.196 82.8356 209.871 83.3556 207.725 83.3556C205.578 83.3556 192.823 80.1734 191.245 76.1378C189.689 72.1156 195.236 69.0978 199.947 66.8133C204.654 64.5689 217.538 64.6001 220.831 63.8534C227.529 62.3867 236.089 59.0223 240.405 61.9556C244.694 64.8401 222.391 69.92 229.72 73.88C232.329 75.3111 244.12 67.0978 248.165 64.9956C257.663 60.0934 238.943 58.4756 241.374 48.5067C244.12 37.2445 218.409 41.6 205.6 42.56C222.783 31.5467 243.196 25.1422 265.111 25.1422C317.254 25.1422 360.925 61.2623 372.569 109.831C372.645 112.231 372.272 113.964 372.032 114.947C371.032 118.929 363.476 122.356 359.094 115.942C357.974 114.324 353.232 109.849 353.392 117.507C353.547 125.164 360.836 125.951 353.769 130.547C346.711 135.142 345.418 134.036 342.156 135.191C338.903 136.347 335.743 144.24 336.52 148.458C337.307 152.676 347.383 164.196 339.907 163.72C338.16 163.591 324.951 154.573 322.769 148.773C320.467 142.667 317.96 136.689 316.174 132.085C314.374 127.493 309.711 126.324 305.765 129.022C301.836 131.716 306.867 134.405 304.036 140.16C301.218 145.907 299.191 151.04 295.045 146.289C284.258 133.929 268.583 140.027 266.125 126.276C264.8 118.818 258.378 119.529 253.009 115.307C247.614 111.107 244.609 108.822 243.703 111.862C242.898 114.533 260.591 128.56 261.854 132.151C263.729 137.489 256.551 142.2 251.303 143.467C246.071 144.72 243.76 140.52 238.614 135.156C233.467 129.8 231.214 125.969 230.858 130.178C230.343 136.258 235.747 145.187 240.991 148.525C245.463 151.36 250.471 152.64 249.027 157.236C247.574 161.845 249 159.24 243.987 164.196C238.969 169.178 238.014 170.778 238.378 177.658C238.743 184.56 236.947 184.956 235.867 190.693C234.796 196.431 232.302 191.462 230.138 199.885ZM170.769 78.08C171.018 77.7822 171.244 77.5378 171.342 77.4134C173.333 75.1378 177.302 74.6534 180.049 74.2267C182.804 73.7556 186.471 75.1378 186.911 76.9689C187.382 78.7867 180.018 82.1245 178.671 83.3734C174.858 86.8889 168.88 94.0489 165.387 94.8223C164.244 95.0756 163.302 94.9023 162.529 94.5201C164.831 88.7912 167.578 83.2845 170.769 78.08ZM176.431 66.8133C177.862 64.7111 182.613 58.72 183.191 57.9645C184.409 56.3911 186.836 56.0712 188.542 55.7689C190.222 55.4445 192.467 56.3911 192.738 57.6578C193.027 58.9245 192.084 63.8356 191.253 64.68C188.933 67.0978 182.871 70.5067 179.533 69.9689C176.951 69.5734 175.942 67.5733 176.431 66.8133ZM527.769 132.12C508.907 105.658 423.565 0 264.929 0C106.267 0 20.9556 105.658 2.05781 132.12C1.25333 133.253 0.56448 134.231 0 135.062C0.56448 135.916 1.25333 136.889 2.05781 138.036C20.9556 164.485 106.267 270.142 264.929 270.142C423.565 270.142 508.907 164.485 527.769 138.036C528.591 136.889 529.272 135.916 529.818 135.062C529.272 134.231 528.591 133.253 527.769 132.12Z" fill="white"/>
</svg>
