<svg width="387" height="328" viewBox="0 0 387 328" fill="none" xmlns="http://www.w3.org/2000/svg">
<path d="M282.827 248.778C269.698 248.778 259.058 238.124 259.058 225C259.058 211.875 269.698 201.249 282.827 201.249C295.987 201.249 306.627 211.875 306.627 225C306.627 238.124 295.987 248.778 282.827 248.778ZM386.067 237.702C377.072 225.551 318.983 151.493 237.547 151.493C166.827 151.493 91.1737 215.635 91.1737 215.635C91.1737 215.635 62.756 157.471 4.62262 151.88C4.28033 151.88 3.91596 151.804 3.5293 151.804H3.16929C1.95595 151.871 0.818152 153.053 0.947005 154.107C1.11149 155.124 1.85815 156.231 1.85815 156.231C9.35149 168.671 28.476 204.067 28.476 239.422C28.476 274.893 9.24034 310.382 1.81815 322.764L1.31147 323.551C1.09814 323.924 0.947005 324.293 0.947005 324.778C0.947005 326.004 1.90262 326.96 3.09814 327.071L3.72482 327.018C3.92034 327.018 4.12929 327.018 4.33366 326.96C62.6493 321.525 91.1737 263.182 91.1737 263.182C91.1737 263.182 166.827 327.329 237.547 327.329C318.983 327.329 377.072 253.271 386.067 241.147C386.312 240.818 386.512 240.529 386.685 240.311C386.796 240.031 386.876 239.76 386.876 239.422C386.876 239.102 386.796 238.782 386.685 238.538C386.512 238.289 386.312 238.004 386.067 237.702Z" fill="white"/>
<path d="M2.78667 12.2889C2.60896 12.2533 2.48897 12.1911 2.3423 12.1911C1.05334 12.1911 0 13.2399 0 14.551V30.76C0 31.44 0.257822 32.0355 0.684489 32.44C39.9956 66.5956 77.2178 34.5911 85.8356 26.1333C86.0134 25.8755 86.1956 25.6311 86.4535 25.4755C86.8401 25.2266 87.2579 25.0489 87.7379 25.0489C88.3422 25.0489 88.9156 25.2844 89.3201 25.6799C89.351 25.7199 89.4001 25.76 89.4356 25.7778C133.84 68.1601 180.4 33.8311 190.089 25.7778L191.045 24.9067C191.316 24.7778 191.614 24.7289 191.929 24.7289C192.258 24.7289 192.587 24.7778 192.854 24.9067L193.809 25.7778C203.494 33.8311 250.054 68.1601 294.458 25.7778C294.469 25.76 294.52 25.7199 294.542 25.6799C294.96 25.2844 295.507 25.0489 296.12 25.0489C296.605 25.0489 297.049 25.2266 297.409 25.4755C297.68 25.6311 297.867 25.8755 298.067 26.1333C306.671 34.5911 343.858 66.5956 383.2 32.44C383.609 32.0355 383.88 31.44 383.88 30.76V14.551C383.88 13.2399 382.858 12.1911 381.573 12.1911C381.405 12.1911 381.249 12.2532 381.071 12.2889C380.707 12.4978 380.329 12.6933 379.889 12.9022C367.8 18.96 330.302 33.3644 296.262 1.15996C295.938 0.86219 295.605 0.559948 295.271 0.213281C294.96 0.0843959 294.662 0 294.28 0C294.045 0 293.787 0.0666197 293.578 0.111068C293.071 0.311068 292.667 0.635568 292.396 1.03112C282.244 8.76002 235.684 40.2845 194.218 1.60443L193.609 1.01328C193.178 0.626615 192.587 0.311068 191.929 0.311068C191.315 0.311068 190.711 0.626615 190.307 1.01328L189.658 1.60443C148.213 40.2845 101.6 8.76002 91.471 1.03112C91.2087 0.635568 90.8177 0.311068 90.3199 0.111068C90.0799 0.0665877 89.8399 0 89.5777 0C89.2487 0 88.9154 0.0844279 88.5998 0.213281C88.2977 0.559948 87.9377 0.86219 87.5998 1.15996C53.5687 33.3644 16.0843 18.96 3.98646 12.9022C3.55979 12.6933 3.15563 12.4978 2.78667 12.2889Z" fill="white"/>
<path d="M85.8358 85.1109C86.0225 84.8442 86.1958 84.6532 86.4581 84.4665C86.8403 84.2265 87.2624 84.0265 87.7381 84.0265C88.3424 84.0265 88.9203 84.2754 89.3291 84.6754C89.3515 84.7154 89.4006 84.7509 89.4358 84.7776C133.827 127.098 180.4 92.7954 190.094 84.7776L191.045 83.8709C191.316 83.7642 191.614 83.7242 191.925 83.7242C192.263 83.7242 192.583 83.7642 192.863 83.8709L193.809 84.7776C203.494 92.7954 250.049 127.098 294.458 84.7776C294.469 84.7509 294.507 84.7154 294.543 84.6754C294.96 84.2754 295.503 84.0265 296.116 84.0265C296.609 84.0265 297.049 84.2265 297.405 84.4665C297.685 84.6532 297.867 84.8442 298.067 85.1109C306.667 93.5776 343.854 125.591 383.2 91.4043C383.614 90.982 383.889 90.4354 383.889 89.7598V73.5065C383.889 72.2131 382.849 71.182 381.574 71.182C381.405 71.182 381.249 71.2442 381.072 71.2799C380.707 71.4532 380.325 71.6576 379.889 71.8709C367.809 77.9287 330.294 92.3021 296.263 60.1376C295.943 59.8354 295.609 59.5331 295.276 59.2043C294.96 59.0265 294.663 58.9731 294.28 58.9731C294.045 58.9731 293.791 59.0265 293.578 59.1509C293.067 59.2754 292.667 59.5998 292.396 60.022C282.254 67.742 235.685 99.2754 194.214 60.5909L193.605 59.9821C193.178 59.5687 192.582 59.3332 191.925 59.3332C191.316 59.3332 190.711 59.5687 190.302 59.9821L189.658 60.5909C148.213 99.2754 101.6 67.742 91.4712 60.022C91.2089 59.5998 90.8134 59.2754 90.3245 59.1509C90.0845 59.0265 89.8312 58.9731 89.5779 58.9731C89.2446 58.9731 88.9201 59.0265 88.6089 59.2043C88.2889 59.5331 87.9467 59.8354 87.5956 60.1376C53.5645 92.3021 16.0845 77.9287 3.98667 71.8709C3.56 71.6576 3.16 71.4532 2.79115 71.2799C2.60896 71.2443 2.49335 71.182 2.34668 71.182C1.05335 71.182 0 72.2131 0 73.5065V89.7598C0 90.4354 0.257826 90.982 0.680013 91.4043C39.9956 125.591 77.2225 93.5776 85.8358 85.1109Z" fill="white"/>
</svg>
