<svg width="351" height="344" viewBox="0 0 351 344" fill="none" xmlns="http://www.w3.org/2000/svg">
<path d="M107.065 199.29C107.936 199.29 108.634 200.001 108.634 200.872V252.903C108.634 253.787 107.936 254.485 107.065 254.485H86.0031C85.1276 254.485 84.4253 253.787 84.4253 252.903V200.872C84.4253 200.001 85.1276 199.29 86.0031 199.29H107.065Z" fill="white"/>
<path d="M348.573 276.711H1.59105C0.720008 276.711 0 277.458 0 278.343V299.551C0 300.414 0.720008 301.111 1.59105 301.111H348.573C349.422 301.111 350.16 300.414 350.16 299.551V278.343C350.16 277.458 349.422 276.711 348.573 276.711Z" fill="white"/>
<path d="M348.573 318.867H1.59105C0.720008 318.867 0 319.565 0 320.427V341.698C0 342.552 0.720008 343.267 1.59105 343.267H348.573C349.422 343.267 350.16 342.552 350.16 341.698V320.427C350.16 319.565 349.422 318.867 348.573 318.867Z" fill="white"/>
<path d="M282.547 141.582C278.209 138.196 266.636 130.276 252.529 130.276C242.444 130.276 233.062 134.249 224.662 142.116C224.071 142.68 223.738 143.462 223.738 144.293V146.182C223.738 147.111 224.044 147.982 224.724 148.556C225.48 149.124 226.267 149.338 227.173 149.125C227.369 149.098 227.618 149.036 227.822 148.956C228.467 148.733 229.062 148.351 229.556 147.858C231.378 146.636 236.347 144.969 243.453 144.969C250.804 144.969 265.249 146.933 279.209 159.951L279.529 160.236C280.311 161.044 281.396 161.493 282.547 161.493C283.64 161.493 284.769 161.036 285.48 160.262L285.76 159.973C299.796 146.933 314.218 144.969 321.565 144.969C328.725 144.969 333.671 146.636 335.498 147.858C335.996 148.351 336.609 148.742 337.413 149.036C337.725 149.124 338.609 149.307 339.449 149.098C340.729 148.733 341.631 147.578 341.631 146.236V144.564C341.631 143.769 341.289 142.969 340.702 142.418C332.227 134.338 322.742 130.258 312.498 130.258C298.516 130.258 287 138.053 282.547 141.582Z" fill="white"/>
<path d="M261.014 3.29329C260.276 3.63552 259.743 4.3111 259.498 5.11999L259.147 6.27552C258.885 7.19107 259.049 8.14667 259.6 8.88444C260.143 9.59111 260.903 10.0133 261.747 10.0533C261.907 10.0711 262.063 10.1112 262.183 10.0712C262.783 10.0533 263.325 9.92448 263.858 9.64447C264.169 9.58228 264.809 9.40892 265.96 9.40892C267.516 9.40892 281.503 9.88006 290.751 25.6001L290.871 25.8223C291.374 26.7334 292.16 27.3601 293.094 27.6001C293.36 27.6889 293.871 27.7734 294.196 27.7734C294.836 27.7734 295.485 27.6 295.943 27.3378L296.174 27.2267C301.236 24.6978 306.476 23.4001 311.649 23.4001C320.418 23.4001 326.138 26.9734 327.476 28.4667C327.747 28.969 328.165 29.4089 328.64 29.76C328.934 29.9289 329.454 30.1912 329.769 30.3023C329.925 30.3423 330.107 30.36 330.276 30.3734C330.37 30.3956 330.485 30.3956 330.587 30.3956C331.063 30.3956 331.516 30.2756 331.965 30.0489C332.676 29.6933 333.209 29.0445 333.44 28.2712L333.729 27.2489C333.818 26.9867 333.849 26.7023 333.849 26.4045C333.849 25.8623 333.712 25.3378 333.449 24.9156C326.707 13.2133 316.929 10.7689 309.912 10.7689C304.685 10.7689 300.116 12.12 297.423 13.1111C294.24 8.83557 286.209 0 274.023 0C269.738 0 265.369 1.09774 261.014 3.29329Z" fill="white"/>
<path d="M187.698 56.6758L187.792 58.2358C187.841 59.2136 188.352 60.0581 189.183 60.5736C189.867 61.0047 190.743 61.1559 191.512 60.9247C191.685 60.8892 191.876 60.8225 192.018 60.7691C192.618 60.5247 193.121 60.1425 193.521 59.6625C194.996 58.5958 199.752 56.6536 206.756 56.6536C213.494 56.6536 223.747 58.4536 234.192 67.0358L234.432 67.2848C235.178 67.9292 236.134 68.2936 237.112 68.2936H237.37C238.458 68.2091 239.467 67.7069 240.09 66.9825L240.325 66.7203C251.89 54.4803 264.347 52.6625 270.738 52.6625C275.298 52.6625 278.53 53.6047 279.787 54.3158C280.263 54.7247 280.854 55.0536 281.592 55.2536C281.801 55.3024 282.312 55.3914 282.863 55.3336C283.09 55.3114 283.37 55.2314 283.592 55.1603C284.827 54.7247 285.645 53.5158 285.556 52.1781L285.48 50.818C285.427 50.0091 285.049 49.2847 284.436 48.7558C277.534 42.9469 270.085 40.0225 262.24 40.0225C250.036 40.0225 240.303 47.2269 236.267 50.7647C232.578 48.2492 223.627 43.0803 213.116 43.0803C203.885 43.0803 195.609 46.9158 188.498 54.4536C187.934 55.0536 187.658 55.8625 187.698 56.6758Z" fill="white"/>
<path d="M12.1069 84.5289C12.1069 63.7511 28.9512 46.9156 49.7202 46.9156C50.5335 46.9156 51.329 46.9867 52.1335 47.0311C54.1113 20.7378 76.0268 0 102.831 0C130.942 0 153.734 22.7822 153.734 50.8978C153.734 58.8578 151.845 66.3645 148.587 73.0756C174.058 78.72 193.12 101.405 193.12 128.565C193.12 159.978 167.662 185.44 136.254 185.44C133.956 185.44 60.3424 185 60.3424 185C38.098 184.996 20.0669 166.973 20.0669 144.729C20.0669 134.045 24.2536 124.364 31.049 117.156C19.7424 110.667 12.1069 98.5023 12.1069 84.5289Z" fill="white"/>
</svg>
