<svg width="335" height="313" viewBox="0 0 335 313" fill="none" xmlns="http://www.w3.org/2000/svg">
<path d="M287.436 2.54736C287.436 2.54736 280.668 11.5296 282.636 20.2807C284.619 29.0363 294.592 34.2407 294.592 34.2407C294.592 34.2407 301.361 25.2585 299.388 16.5074C297.414 7.75183 287.436 2.54736 287.436 2.54736Z" fill="white"/>
<path d="M276.409 53.8407C276.409 53.8407 283.178 44.8541 281.205 36.103C279.222 27.343 269.249 22.1519 269.249 22.1519C269.249 22.1519 262.48 31.1252 264.445 39.8808C266.431 48.6319 276.409 53.8407 276.409 53.8407Z" fill="white"/>
<path d="M304.209 44.2231C304.209 44.2231 311.356 51.4276 319.489 50.7031C327.622 49.9831 333.649 41.6098 333.649 41.6098C333.649 41.6098 326.516 34.4054 318.378 35.1298C310.244 35.8543 304.209 44.2231 304.209 44.2231Z" fill="white"/>
<path d="M315.911 5.74732C309.293 12.4629 310.227 24.3429 310.227 24.3429C310.227 24.3429 321.894 25.3562 328.525 18.6451C335.138 11.9384 334.205 0.0540252 334.205 0.0540252C334.205 0.0540252 322.533 -0.954899 315.911 5.74732Z" fill="white"/>
<path d="M301.311 70.9249C309.414 71.8849 317.036 64.9249 317.036 64.9249C317.036 64.9249 311.516 56.4138 303.422 55.4583C295.307 54.5027 287.685 61.4627 287.685 61.4627C287.685 61.4627 293.205 69.9694 301.311 70.9249Z" fill="white"/>
<path d="M308.551 201.223H247.969C243.231 201.223 239.387 205.045 239.387 209.788C239.387 214.516 243.231 218.361 247.969 218.361H308.551C313.28 218.361 317.12 214.516 317.12 209.788C317.12 205.045 313.28 201.223 308.551 201.223Z" fill="white"/>
<path d="M308.551 295.686H247.969C243.231 295.686 239.387 299.517 239.387 304.254C239.387 308.988 243.231 312.828 247.969 312.828H308.551C313.28 312.828 317.12 308.988 317.12 304.254C317.12 299.517 313.28 295.686 308.551 295.686Z" fill="white"/>
<path d="M36.0979 180.414C34.6757 179.974 33.2624 179.587 31.8936 179.33C31.8936 179.33 33.4446 179.814 36.0979 180.414Z" fill="white"/>
<path d="M134.284 217.494C138.275 217.561 142.284 217.441 146.293 217.17V248.819L134.284 248.547V217.494ZM306.316 224.347H250.182C247.489 224.347 245.302 226.534 245.302 229.219V246.223L208.653 250.25L155.115 249.023V216.321C162.231 215.414 169.351 213.996 176.418 212.001C227.955 197.459 239.191 165.361 238.071 135.881C236.951 105.858 246.56 94.1962 260.364 89.014C264.32 87.5296 268.231 86.5918 271.804 85.9829C271.96 93.3562 273.453 101.93 276.756 112.147C277.978 112.076 279.196 111.974 280.409 111.841C276.924 101.392 275.44 92.8007 275.356 85.4674C282.493 84.6274 287.578 85.1029 287.578 85.1029C287.578 85.1029 282.756 82.5118 275.947 76.8184C278.262 62.6006 286.733 53.8717 295.458 44.9428C300.258 40.0273 305.213 34.9562 309.116 28.9073L306.076 26.9473C302.382 32.6939 297.529 37.6273 292.867 42.414C284.351 51.1207 275.764 60.0184 272.853 74.1296C270.089 71.6318 267.098 68.6807 264.031 65.2451C251.324 51.0007 234.964 61.4629 211.635 83.1874C188.293 104.898 158.946 105.641 130.28 76.3118C92.4619 37.5962 59.4752 37.814 36.8486 40.014C52.3241 46.6051 57.7374 61.0629 65.5731 97.8229C73.7819 136.392 94.4842 153.841 122.809 156.25C109.68 158.374 106.271 160.196 85.1686 174.774C68.6841 186.143 45.4974 182.552 36.0974 180.414C53.3552 185.796 73.7909 203.899 92.0842 210.196C102.733 213.863 113.96 216.13 125.458 217.041V248.343L23.9062 246.156V267.992L208.653 263.894L245.302 267.93V284.916C245.302 287.605 247.489 289.801 250.182 289.801H306.316C309.013 289.801 311.2 287.605 311.2 284.916V229.219C311.2 226.534 309.013 224.347 306.316 224.347Z" fill="white"/>
<path d="M18.6623 264.383C18.6623 268.992 15.4533 272.721 11.4933 272.721H7.17332C3.22666 272.721 0 268.992 0 264.383V249.289C0 244.676 3.22666 240.947 7.17332 240.947H11.4933C15.4533 240.947 18.6623 244.676 18.6623 249.289V264.383Z" fill="white"/>
</svg>
