<svg width="356" height="348" viewBox="0 0 356 348" fill="none" xmlns="http://www.w3.org/2000/svg">
<path d="M240.787 161.382C259.125 144.36 270.64 120.071 270.64 93.1289C270.64 89.0978 270.351 85.1289 269.858 81.2267C307.134 85.2222 336.271 116.849 336.271 155.178C336.271 176.951 326.809 196.507 311.831 210.125C297.814 183.862 271.596 165.08 240.787 161.382ZM304.009 253.822C304.009 294.822 270.64 328.191 229.622 328.191C216.276 328.191 203.791 324.614 192.947 318.431C208.769 301.734 218.525 279.2 218.525 254.445C218.525 248.342 217.911 242.391 216.791 236.622C230.16 244.053 245.529 248.302 261.889 248.302C276.445 248.302 290.227 244.942 302.498 238.956C303.489 243.769 304.009 248.733 304.009 253.822ZM51.0133 254.445C51.0133 249.151 51.5778 244 52.64 239.027C64.8933 244.969 78.6311 248.302 93.129 248.302C109.436 248.302 124.756 244.08 138.098 236.693C137.058 242.245 136.485 247.969 136.485 253.822C136.485 278.974 146.547 301.822 162.813 318.596C151.809 325.045 139.04 328.809 125.396 328.809C84.3733 328.809 51.0133 295.445 51.0133 254.445ZM18.7511 155.178C18.7511 116.849 47.88 85.2267 85.1557 81.2267C84.6578 85.1289 84.3734 89.0978 84.3734 93.1289C84.3734 120.356 96.1245 144.885 114.8 161.929C83.9067 165.445 57.56 184.111 43.3955 210.32C28.3067 196.702 18.7511 177.053 18.7511 155.178ZM177.502 18.7511C207.978 18.7511 234.2 37.1822 245.685 63.4756C215.427 68.8089 190.165 88.7822 177.502 115.809C164.853 88.7778 139.587 68.8089 109.329 63.4756C120.813 37.1822 147.031 18.7511 177.502 18.7511ZM195.213 187.942C205.52 182.542 217.2 179.44 229.622 179.44C258.862 179.44 284.147 196.449 296.302 221.049C285.991 226.458 274.294 229.556 261.889 229.556C232.64 229.556 207.36 212.547 195.213 187.942ZM159.556 188.445C147.32 212.778 122.178 229.556 93.129 229.556C80.809 229.556 69.2045 226.489 58.9645 221.165C71.2 196.831 96.3511 180.058 125.396 180.058C137.72 180.058 149.316 183.116 159.556 188.445ZM104.098 81.6934C139.916 87.0178 167.516 117.893 167.516 155.178C167.516 159.067 167.12 162.871 166.538 166.605C130.716 161.276 103.125 130.409 103.125 93.1289C103.125 89.2311 103.516 85.4267 104.098 81.6934ZM177.849 307.098C163.925 293.578 155.24 274.702 155.24 253.822C155.24 233.258 163.645 214.622 177.165 201.147C191.08 214.667 199.773 233.547 199.773 254.445C199.773 274.996 191.378 293.627 177.849 307.098ZM251.885 93.1289C251.885 130.409 224.294 161.276 188.476 166.605C187.898 162.871 187.511 159.067 187.511 155.178C187.511 117.893 215.098 87.0222 250.911 81.6978C251.494 85.4267 251.885 89.2311 251.885 93.1289ZM355.018 155.178C355.018 104.96 315.071 63.9333 265.311 62.12C252.511 25.9733 217.987 0 177.502 0C137.022 0 102.507 25.9733 89.6934 62.12C39.9333 63.9378 0 104.965 0 155.178C0 184.973 14.0845 211.533 35.9378 228.591C33.5645 236.809 32.2578 245.471 32.2578 254.445C32.2578 305.774 74.04 347.56 125.396 347.56C144.885 347.56 162.982 341.525 177.956 331.254C192.751 341.151 210.525 346.938 229.622 346.938C280.974 346.938 322.751 305.16 322.751 253.822C322.751 245.036 321.507 236.542 319.227 228.485C340.987 211.418 355.018 184.911 355.018 155.178Z" fill="white"/>
</svg>
