<svg width="387" height="348" viewBox="0 0 387 348" fill="none" xmlns="http://www.w3.org/2000/svg">
<path d="M248.369 4.89843C246.814 7.10729 210.445 59.4718 249.178 101.814C266.947 121.254 265.405 138.396 260.329 149.979H285.178C290.214 132.881 288.134 111.436 267.96 89.3919C239.418 58.1918 268.329 16.014 268.765 15.3651C272.169 10.5518 270.343 4.35179 264.729 1.45846C259.094 -1.42154 251.787 0.120621 248.369 4.89843Z" fill="white"/>
<path d="M185.441 149.979H210.294C215.316 132.876 213.236 111.436 193.058 89.3919C164.512 58.1874 193.396 16.0318 193.849 15.343C197.241 10.5518 195.449 4.36065 189.809 1.45846C184.192 -1.41268 176.876 0.116251 173.467 4.89844C171.912 7.09844 135.503 59.4718 174.281 101.814C192.045 121.254 190.494 138.405 185.441 149.979Z" fill="white"/>
<path d="M98.5603 4.89858C96.9825 7.10744 60.6136 59.4719 99.3558 101.814C117.129 121.259 115.596 138.405 110.534 149.979H135.383C140.409 132.89 138.329 111.441 118.142 89.3921C89.5869 58.192 118.498 16.0141 118.956 15.3475C122.329 10.552 120.529 4.35194 114.898 1.45861C109.28 -1.43472 101.965 0.111918 98.5603 4.89858Z" fill="white"/>
<path d="M130.805 332.751V342.822C130.794 342.889 130.769 342.974 130.769 343.049C130.769 343.133 130.796 343.213 130.805 343.285C130.907 345.778 132.942 347.765 135.449 347.809C135.48 347.809 135.507 347.827 135.543 347.827C135.578 347.827 135.623 347.809 135.658 347.809H253.783C253.81 347.809 253.845 347.827 253.881 347.827C253.916 347.827 253.957 347.809 253.988 347.809C256.566 347.764 258.628 345.662 258.646 343.08C258.646 343.069 258.664 343.062 258.664 343.049C258.664 343.049 258.646 343.031 258.646 343.014V331.618C325.144 309.818 374.957 255.925 385.912 190.245C385.939 190.103 385.957 189.974 385.979 189.854C386.014 189.623 386.04 189.414 386.04 189.192C386.04 186.552 383.916 184.418 381.267 184.418H4.78667C2.12886 184.418 0 186.552 0 189.192L0.248861 191.338C11.7512 257.645 62.938 311.84 130.805 332.751Z" fill="white"/>
</svg>
