<svg width="480" height="336" viewBox="0 0 480 336" fill="none" xmlns="http://www.w3.org/2000/svg">
<path d="M479.422 177.42C479.422 157.304 466.511 140.993 446.964 140.993C437.182 140.993 425.391 151.7 418.987 158.282C412.582 151.691 401.569 140.975 391.791 140.975C372.235 140.975 358.533 157.286 358.533 177.411C358.533 187.473 362.493 196.58 368.907 203.175L419.027 253.393L469.08 203.233L469.041 203.198C475.458 196.602 479.422 187.486 479.422 177.42Z" fill="white"/>
<path d="M266.027 335.371C265.862 335.371 265.689 335.371 265.516 335.353C261.707 335.122 258.56 332.295 257.911 328.53L232.458 180.25L193.889 251.757C192.2 254.89 188.671 256.575 185.205 255.948C181.707 255.33 179.009 252.53 178.498 249.015L162.124 134.583L132.173 201.864C130.849 204.833 127.907 206.748 124.653 206.748H8.23115C3.68001 206.748 0 203.059 0 198.517C0 193.97 3.68001 190.286 8.23115 190.286H119.307L158.707 101.788C160.2 98.4368 163.724 96.4812 167.364 96.9834C170.996 97.4901 173.853 100.339 174.378 103.97L191.253 221.961L229.289 151.446C230.956 148.348 234.396 146.659 237.867 147.228C241.329 147.797 244.049 150.499 244.645 153.961L268.222 291.29L354.151 5.85444C355.133 2.60559 358.005 0.285572 361.382 0.0233852C364.773 -0.229948 367.973 1.59226 369.445 4.65008L414.658 98.3834C416.631 102.481 414.916 107.397 410.827 109.37C406.733 111.348 401.805 109.632 399.831 105.535L363.813 30.8589L273.902 329.508C272.853 333.006 269.636 335.371 266.027 335.371Z" fill="white"/>
</svg>
