<svg width="400" height="327" viewBox="0 0 400 327" fill="none" xmlns="http://www.w3.org/2000/svg">
<path d="M155.618 95.2887L27.373 21.2397V260.787L155.618 299.48V95.2887Z" fill="white"/>
<path d="M169.72 95.778V299.565L298.795 260.756V21.249L169.72 95.778Z" fill="white"/>
<path d="M399.463 15.1778C399.463 6.79113 392.667 0 384.303 0C375.907 0 369.125 6.79113 369.125 15.1778V31.5333H399.463V15.1778Z" fill="white"/>
<path d="M372.889 256.538H369.124L384.302 309.569L399.453 256.538V43.4131H369.115V256.538H372.889Z" fill="white"/>
<path d="M326.338 31.5288L312.591 20.6665V267.28L170.102 313.325H155.618L13.7555 273.698V20.6665L0 31.5288V283.342L154.965 326.24H170.742L313.711 280.849L326.338 277.134V31.5288Z" fill="white"/>
</svg>
