<svg width="283" height="381" viewBox="0 0 283 381" fill="none" xmlns="http://www.w3.org/2000/svg">
<path d="M116.391 248.316C69.1512 248.316 30.7289 209.88 30.7289 162.64C30.7289 115.396 69.1512 76.9646 116.391 76.9646C163.64 76.9646 202.076 115.396 202.076 162.64C202.076 209.88 163.64 248.316 116.391 248.316ZM280.929 0H192.062C191.453 0 190.933 0.502293 190.933 1.13333V30.6623C190.933 31.2978 191.453 31.8001 192.062 31.8001H227.449L188.156 71.1023C168.365 55.5512 143.462 46.2445 116.391 46.2445C52.2223 46.2445 0 98.4579 0 162.64C0 221.734 44.2712 270.636 101.369 278.031V312.058H66.32C65.6667 312.058 65.1734 312.565 65.1734 313.183V344.836C65.1734 345.467 65.6667 345.969 66.32 345.969H101.369V379.454C101.369 380.08 101.876 380.583 102.498 380.583H134.133C134.765 380.583 135.28 380.08 135.28 379.454V345.969H170.329C170.956 345.969 171.458 345.467 171.458 344.836V313.183C171.458 312.565 170.956 312.058 170.329 312.058H135.28V277.48C190.507 268.418 232.787 220.387 232.787 162.64C232.787 137.729 224.898 114.64 211.529 95.6934L250.258 56.9556V90.0046C250.258 90.6312 250.782 91.1335 251.405 91.1335H280.929C281.56 91.1335 282.085 90.6312 282.085 90.0046V1.13333C282.085 0.502293 281.56 0 280.929 0Z" fill="white"/>
<path d="M168.724 127.476H64.8087C64.182 127.476 63.6797 127.938 63.6797 128.489V153.644C63.6797 154.236 64.182 154.676 64.8087 154.676H168.724C169.369 154.676 169.871 154.236 169.871 153.644V128.489C169.871 127.938 169.369 127.476 168.724 127.476Z" fill="white"/>
<path d="M168.724 172.396H64.8087C64.182 172.396 63.6797 172.867 63.6797 173.44V198.6C63.6797 199.16 64.182 199.613 64.8087 199.613H168.724C169.369 199.613 169.871 199.16 169.871 198.6V173.44C169.871 172.867 169.369 172.396 168.724 172.396Z" fill="white"/>
</svg>
