<svg width="219" height="301" viewBox="0 0 219 301" fill="none" xmlns="http://www.w3.org/2000/svg">
<path d="M203.372 46.5423C197.594 43.9912 190.216 44.9111 183.194 47.7689C156.661 58.5156 138.616 62.3867 110.705 53.649C93.1496 48.1511 76.7052 36.6356 57.2829 43.649C44.394 48.2845 32.394 52.7112 17.8162 52.5956L9.37177 9.43119H209.416L203.372 46.5423ZM135.55 174.725C135.55 174.725 125.861 184.703 110.039 183.623C94.2162 184.703 84.5274 174.725 84.5274 174.725C68.5274 158.725 74.2162 138.822 79.8162 128.538C83.2385 122.098 107.861 85.1468 109.95 82.0045V81.7557C109.95 81.7557 109.994 81.8047 110.038 81.8757L110.127 81.7557V82.0045C112.216 85.1468 136.838 122.098 140.304 128.538C145.86 138.822 151.55 158.725 135.55 174.725ZM218.172 0.848893C217.683 0.306707 217.016 0 216.216 0H2.4829C1.77175 0 1.06062 0.306707 0.571765 0.848893C0.127285 1.44452 -0.0949013 2.1822 0.0384321 2.87116L35.9496 220.063C36.1274 221.263 37.194 222.156 38.394 222.156H82.4829L85.5052 257.529L66.9719 257.552L110.127 300.703L153.372 257.454L134.839 257.472L137.816 222.156H182.705C183.905 222.156 184.972 221.263 185.15 220.023L218.75 2.87161C218.838 2.12495 218.616 1.41337 218.172 0.848893Z" fill="white"/>
</svg>
