<svg width="365" height="365" viewBox="0 0 365 365" fill="none" xmlns="http://www.w3.org/2000/svg">
<path d="M182.373 236.983C152.276 236.983 127.871 212.583 127.871 182.48C127.871 158.009 143.978 137.316 166.178 130.418V150.711C154.622 156.614 146.693 168.605 146.693 182.48C146.693 202.187 162.662 218.16 182.373 218.16C202.089 218.16 218.058 202.187 218.058 182.48C218.058 168.565 210.093 156.552 198.48 150.663V130.392C220.725 137.258 236.889 157.974 236.889 182.48C236.889 212.583 212.489 236.983 182.373 236.983ZM174.6 119.885C174.6 116.396 178.102 112.556 182.4 112.556C186.693 112.556 190.164 116.396 190.164 119.885V155.867C190.164 159.338 186.693 163.138 182.4 163.138C178.102 163.138 174.6 159.338 174.6 155.867V119.885ZM182.356 78.4849C124.489 78.4849 77.5688 125.405 77.5688 183.28C77.5688 241.183 124.489 288.089 182.356 288.089C240.231 288.089 287.151 241.183 287.151 183.28C287.151 125.405 240.231 78.4849 182.356 78.4849Z" fill="white"/>
<path d="M62.0622 182.365C62.0622 177.614 57.8533 173.765 54.0133 173.765H8.11563C4.24448 173.765 0 177.614 0 182.365C0 187.13 4.24448 191.001 8.11563 191.001H54.0133C57.8533 191.001 62.0622 187.13 62.0622 182.365Z" fill="white"/>
<path d="M364.765 182.365C364.765 177.614 360.556 173.765 356.716 173.765H310.822C306.956 173.765 302.711 177.614 302.711 182.365C302.711 187.13 306.956 191.001 310.822 191.001H356.716C360.556 191.001 364.765 187.13 364.765 182.365Z" fill="white"/>
<path d="M182.4 62.0578C187.147 62.0578 191 57.8533 191 54.0089V8.1155C191 4.24435 187.147 0 182.4 0C177.645 0 173.765 4.24435 173.765 8.1155V54.0089C173.765 57.8533 177.645 62.0578 182.4 62.0578Z" fill="white"/>
<path d="M182.4 364.76C187.147 364.76 191 360.551 191 356.707V310.818C191 306.951 187.147 302.698 182.4 302.698C177.645 302.698 173.765 306.951 173.765 310.818V356.707C173.765 360.551 177.645 364.76 182.4 364.76Z" fill="white"/>
<path d="M77.96 122.6C80.3244 118.476 78.5866 113.045 75.2443 111.138L35.4178 88.3426C32.0578 86.4181 26.4578 87.6492 24.0978 91.7692C21.7333 95.9069 23.4978 101.374 26.8578 103.303L66.6888 126.094C70.0221 128.005 75.5955 126.738 77.96 122.6Z" fill="white"/>
<path d="M340.685 272.96C343.04 268.84 341.298 263.404 337.969 261.493L298.138 238.698C294.778 236.778 289.178 238.013 286.823 242.138C284.458 246.267 286.223 251.742 289.574 253.658L329.405 276.453C332.743 278.36 338.316 277.093 340.685 272.96Z" fill="white"/>
<path d="M242.165 77.9645C246.289 80.3201 251.716 78.5824 253.627 75.2491L276.423 35.4179C278.347 32.0535 277.116 26.4579 272.991 24.0935C268.863 21.729 263.387 23.4978 261.463 26.8534L238.667 66.6801C236.76 70.0224 238.027 75.6001 242.165 77.9645Z" fill="white"/>
<path d="M91.8045 340.68C95.9245 343.04 101.36 341.298 103.271 337.96L126.062 298.134C127.982 294.778 126.751 289.169 122.631 286.814C118.502 284.449 113.022 286.214 111.102 289.569L88.3112 329.4C86.4045 332.734 87.6756 338.32 91.8045 340.68Z" fill="white"/>
<path d="M122.418 78.067C126.533 75.6982 127.773 70.1293 125.862 66.8004L102.982 27.0137C101.049 23.6581 95.6001 21.9025 91.4756 24.267C87.3467 26.6404 86.1112 32.2537 88.0489 35.6092L110.916 75.387C112.84 78.716 118.28 80.4404 122.418 78.067Z" fill="white"/>
<path d="M273.311 340.476C277.431 338.111 278.671 332.542 276.76 329.214L253.88 289.427C251.951 286.071 246.498 284.311 242.374 286.68C238.245 289.049 237.005 294.662 238.947 298.022L261.818 337.805C263.734 341.134 269.182 342.854 273.311 340.476Z" fill="white"/>
<path d="M286.702 122.414C289.062 126.53 294.631 127.77 297.965 125.854L337.743 102.978C341.103 101.05 342.871 95.5963 340.503 91.4763C338.125 87.3518 332.52 86.1073 329.16 88.0406L289.378 110.916C286.049 112.832 284.325 118.29 286.702 122.414Z" fill="white"/>
<path d="M24.2892 273.316C26.6536 277.427 32.2226 278.671 35.5514 276.751L75.3291 253.876C78.6891 251.947 80.4625 246.493 78.0847 242.378C75.7158 238.244 70.1024 237.009 66.7513 238.938L26.9692 261.813C23.6359 263.724 21.9159 269.182 24.2892 273.316Z" fill="white"/>
</svg>
