<svg width="298" height="315" viewBox="0 0 298 315" fill="none" xmlns="http://www.w3.org/2000/svg">
<path d="M268.719 74.3821L205.861 134.178C203.492 136.538 202.274 138.276 202.274 143.16V310.742C202.274 312.711 203.883 314.32 205.861 314.32H270.795C272.768 314.32 274.368 312.711 274.368 310.742V75.8932C274.368 73.9154 272.821 70.3021 268.719 74.3821Z" fill="white"/>
<path d="M87.6384 152.289L24.7716 212.076C22.4073 214.44 21.1895 216.174 21.1895 221.045V310.742C21.1895 312.702 22.7983 314.316 24.7716 314.316H89.7051C91.6873 314.316 93.2829 312.702 93.2829 310.742V153.787C93.2829 151.805 91.7229 148.187 87.6384 152.289Z" fill="white"/>
<path d="M297.292 1.87116C297.314 1.39564 297.145 0.884454 296.759 0.506641C296.425 0.186641 296.008 0.0356267 295.594 0L295.252 0.0223958L294.736 0.0490885L246.603 10.9113L245.727 10.9999C245.385 11.066 245.061 11.2354 244.79 11.4887C244.083 12.2087 244.083 13.3643 244.79 14.0799L245.336 14.6221L256.327 25.6132L147.265 134.676L96.8962 84.2977C96.3228 83.7244 95.4206 83.7244 94.8472 84.2977L81.1806 97.9688C81.1667 97.9688 81.1667 97.987 81.1667 97.987L0.42 178.716C-0.14 179.289 -0.14 180.214 0.42 180.769L14.1044 194.449C14.6644 195.018 15.5755 195.018 16.14 194.449L95.8779 114.725L132.433 151.285C132.473 151.342 132.491 151.4 132.549 151.458L146.22 165.111C146.785 165.689 147.7 165.689 148.269 165.111L272.047 41.338L283.594 52.8714C284.3 53.5914 285.46 53.5914 286.158 52.8714C286.496 52.5335 286.66 52.1247 286.683 51.6847L286.693 51.5335L297.267 2.4002L297.293 1.87135L297.292 1.87116Z" fill="white"/>
<path d="M178.536 162.782L148.119 193.444C147.541 193.92 146.701 193.907 146.163 193.369L118.612 165.28C113.567 160.257 112.479 164.333 112.479 166.306V310.738C112.479 312.702 114.061 314.315 116.034 314.315H180.981C182.95 314.315 184.554 312.702 184.554 310.738V163.911C184.554 161.937 182.999 158.315 178.536 162.782Z" fill="white"/>
</svg>
