<svg width="316" height="319" viewBox="0 0 316 319" fill="none" xmlns="http://www.w3.org/2000/svg">
<path d="M304.996 266.256L238.791 304.46V228.038L304.996 189.82V266.256ZM86.3067 304.46V233.847L147.458 269.158L86.3067 304.46ZM76.2488 304.46L10.0578 266.256V189.82L76.2488 228.038V304.46ZM147.458 93.0689L86.3067 128.384V57.7622L147.458 93.0689ZM228.733 128.38L167.587 93.0689L228.733 57.7622V128.38ZM167.587 181.104L233.76 142.904L299.96 181.104L233.76 219.322L167.587 181.104ZM152.493 172.393L91.3377 137.096L152.493 101.78V172.393ZM223.702 137.096L162.551 172.393V101.78L223.702 137.096ZM152.493 260.447L91.3334 225.136L152.493 189.82V260.447ZM312.538 176.749L238.791 134.189V49.0467C238.791 47.2511 237.836 45.5889 236.28 44.6911L160.036 0.67328C158.48 -0.224427 156.569 -0.224427 155.004 0.67328L78.76 44.6911C77.2044 45.5889 76.2488 47.2511 76.2488 49.0467V134.189L2.51553 176.749C0.951154 177.647 0 179.309 0 181.104V269.158C0 270.958 0.951154 272.62 2.51553 273.518L78.76 317.531C79.5422 317.976 80.4044 318.202 81.2755 318.202C82.1467 318.202 83.0088 317.976 83.791 317.531L157.525 274.967L231.249 317.531C232.031 317.976 232.893 318.202 233.76 318.202C234.636 318.202 235.498 317.98 236.28 317.531L312.538 273.518C314.093 272.62 315.049 270.958 315.049 269.158V181.104C315.049 179.309 314.093 177.647 312.538 176.749Z" fill="white"/>
</svg>
